HIERARCHY
ROOT Hips
{
	OFFSET 0.000000 100.481300 0.000000
	CHANNELS 6 Xposition Yposition Zposition Xrotation Yrotation Zrotation
	JOINT Spine
	{
		OFFSET -0.279200 12.230698 -2.892100
		CHANNELS 3 Xrotation Yrotation Zrotation
		JOINT Spine1
		{
			OFFSET -0.325700 14.269203 -3.374200
			CHANNELS 3 Xrotation Yrotation Zrotation
			JOINT Spine2
			{
				OFFSET -0.372300 16.307602 -0.352600
				CHANNELS 3 Xrotation Yrotation Zrotation
				JOINT Neck
				{
					OFFSET -0.418800 17.814194 8.416900
					CHANNELS 3 Xrotation Yrotation Zrotation
					JOINT Head
					{
						OFFSET 0.000000 7.031097 3.806800
						CHANNELS 3 Xrotation Yrotation Zrotation
						JOINT HeadTop_End
						{
							OFFSET 0.000000 24.646606 12.978600
							CHANNELS 3 Xrotation Yrotation Zrotation
							End Site
							{
								OFFSET 0.000000 27.854965 0.000000
							}
						}
					}
				}
				JOINT LeftShoulder
				{
					OFFSET 16.952999 14.495407 -7.737500
					CHANNELS 3 Xrotation Yrotation Zrotation
					JOINT LeftArm
					{
						OFFSET 9.308998 -2.777710 0.208600
						CHANNELS 3 Xrotation Yrotation Zrotation
						JOINT LeftForeArm
						{
							OFFSET 29.972298 0.000000 0.000000
							CHANNELS 3 Xrotation Yrotation Zrotation
							JOINT LeftHand
							{
								OFFSET 26.026505 0.000000 0.000000
								CHANNELS 3 Xrotation Yrotation Zrotation
								JOINT LeftHandThumb1
								{
									OFFSET 12.240501 -7.147949 9.207150
									CHANNELS 3 Xrotation Yrotation Zrotation
									JOINT LeftHandThumb2
									{
										OFFSET 4.138618 -2.389435 2.389433
										CHANNELS 3 Xrotation Yrotation Zrotation
										JOINT LeftHandThumb3
										{
											OFFSET 2.726913 -1.574387 1.574386
											CHANNELS 3 Xrotation Yrotation Zrotation
											JOINT LeftHandThumb4
											{
												OFFSET 3.941010 -2.275345 2.275342
												CHANNELS 3 Xrotation Yrotation Zrotation
												End Site
												{
													OFFSET -0.005798 5.087799 0.009903
												}
											}
										}
									}
								}
								JOINT LeftHandIndex1
								{
									OFFSET 24.424698 -1.985611 5.953459
									CHANNELS 3 Xrotation Yrotation Zrotation
									JOINT LeftHandIndex2
									{
										OFFSET 6.426697 0.000000 0.000000
										CHANNELS 3 Xrotation Yrotation Zrotation
										JOINT LeftHandIndex3
										{
											OFFSET 5.337898 0.000000 0.000000
											CHANNELS 3 Xrotation Yrotation Zrotation
											JOINT LeftHandIndex4
											{
												OFFSET 4.409401 0.000000 0.000000
												CHANNELS 3 Xrotation Yrotation Zrotation
												End Site
												{
													OFFSET 0.000000 4.409363 0.014373
												}
											}
										}
									}
								}
								JOINT LeftHandMiddle1
								{
									OFFSET 23.810104 0.000000 0.000000
									CHANNELS 3 Xrotation Yrotation Zrotation
									JOINT LeftHandMiddle2
									{
										OFFSET 7.176498 0.000000 0.000000
										CHANNELS 3 Xrotation Yrotation Zrotation
										JOINT LeftHandMiddle3
										{
											OFFSET 6.774902 0.000000 0.000000
											CHANNELS 3 Xrotation Yrotation Zrotation
											JOINT LeftHandMiddle4
											{
												OFFSET 5.403328 0.000000 0.000000
												CHANNELS 3 Xrotation Yrotation Zrotation
												End Site
												{
													OFFSET -0.027702 5.403244 0.017414
												}
											}
										}
									}
								}
								JOINT LeftHandRing1
								{
									OFFSET 22.908401 -0.839279 -6.020567
									CHANNELS 3 Xrotation Yrotation Zrotation
									JOINT LeftHandRing2
									{
										OFFSET 6.337502 0.000000 0.000000
										CHANNELS 3 Xrotation Yrotation Zrotation
										JOINT LeftHandRing3
										{
											OFFSET 5.779297 0.000000 0.000000
											CHANNELS 3 Xrotation Yrotation Zrotation
											JOINT LeftHandRing4
											{
												OFFSET 4.965698 0.000000 0.000000
												CHANNELS 3 Xrotation Yrotation Zrotation
												End Site
												{
													OFFSET 0.000000 4.965668 0.016186
												}
											}
										}
									}
								}
								JOINT LeftHandPinky1
								{
									OFFSET 20.037003 -1.530319 -10.950146
									CHANNELS 3 Xrotation Yrotation Zrotation
									JOINT LeftHandPinky2
									{
										OFFSET 5.254700 0.000000 0.000000
										CHANNELS 3 Xrotation Yrotation Zrotation
										JOINT LeftHandPinky3
										{
											OFFSET 4.810204 0.000000 0.000000
											CHANNELS 3 Xrotation Yrotation Zrotation
											JOINT LeftHandPinky4
											{
												OFFSET 3.647202 0.000000 0.000000
												CHANNELS 3 Xrotation Yrotation Zrotation
												End Site
												{
													OFFSET 0.000000 3.647186 0.011889
												}
											}
										}
									}
								}
							}
						}
					}
				}
				JOINT RightShoulder
				{
					OFFSET -15.141001 14.495407 -7.737500
					CHANNELS 3 Xrotation Yrotation Zrotation
					JOINT RightArm
					{
						OFFSET -9.308998 -2.777710 0.208500
						CHANNELS 3 Xrotation Yrotation Zrotation
						JOINT RightForeArm
						{
							OFFSET -29.972300 0.000000 0.000000
							CHANNELS 3 Xrotation Yrotation Zrotation
							JOINT RightHand
							{
								OFFSET -26.026505 0.000000 0.000000
								CHANNELS 3 Xrotation Yrotation Zrotation
								JOINT RightHandThumb1
								{
									OFFSET -12.240601 -7.148026 9.207092
									CHANNELS 3 Xrotation Yrotation Zrotation
									JOINT RightHandThumb2
									{
										OFFSET -4.138618 -2.389435 2.389433
										CHANNELS 3 Xrotation Yrotation Zrotation
										JOINT RightHandThumb3
										{
											OFFSET -2.726974 -1.574417 1.574421
											CHANNELS 3 Xrotation Yrotation Zrotation
											JOINT RightHandThumb4
											{
												OFFSET -3.941010 -2.275345 2.275343
												CHANNELS 3 Xrotation Yrotation Zrotation
												End Site
												{
													OFFSET 0.005814 5.087799 0.009927
												}
											}
										}
									}
								}
								JOINT RightHandIndex1
								{
									OFFSET -24.424698 -1.985657 5.953444
									CHANNELS 3 Xrotation Yrotation Zrotation
									JOINT RightHandIndex2
									{
										OFFSET -6.426697 0.000000 0.000000
										CHANNELS 3 Xrotation Yrotation Zrotation
										JOINT RightHandIndex3
										{
											OFFSET -5.337898 0.000000 0.000000
											CHANNELS 3 Xrotation Yrotation Zrotation
											JOINT RightHandIndex4
											{
												OFFSET -4.409401 0.000000 0.000000
												CHANNELS 3 Xrotation Yrotation Zrotation
												End Site
												{
													OFFSET 0.000000 4.409363 0.014408
												}
											}
										}
									}
								}
								JOINT RightHandMiddle1
								{
									OFFSET -23.810097 0.000000 0.000000
									CHANNELS 3 Xrotation Yrotation Zrotation
									JOINT RightHandMiddle2
									{
										OFFSET -7.176498 0.000000 0.000000
										CHANNELS 3 Xrotation Yrotation Zrotation
										JOINT RightHandMiddle3
										{
											OFFSET -6.774902 0.000000 0.000000
											CHANNELS 3 Xrotation Yrotation Zrotation
											JOINT RightHandMiddle4
											{
												OFFSET -5.403328 0.000000 0.000000
												CHANNELS 3 Xrotation Yrotation Zrotation
												End Site
												{
													OFFSET 0.027702 5.403244 0.017457
												}
											}
										}
									}
								}
								JOINT RightHandRing1
								{
									OFFSET -22.908302 -0.839325 -6.020576
									CHANNELS 3 Xrotation Yrotation Zrotation
									JOINT RightHandRing2
									{
										OFFSET -6.337502 0.000000 0.000000
										CHANNELS 3 Xrotation Yrotation Zrotation
										JOINT RightHandRing3
										{
											OFFSET -5.779297 0.000000 0.000000
											CHANNELS 3 Xrotation Yrotation Zrotation
											JOINT RightHandRing4
											{
												OFFSET -4.965698 0.000000 0.000000
												CHANNELS 3 Xrotation Yrotation Zrotation
												End Site
												{
													OFFSET 0.000000 4.965668 0.016226
												}
											}
										}
									}
								}
								JOINT RightHandPinky1
								{
									OFFSET -20.037003 -1.530334 -10.950259
									CHANNELS 3 Xrotation Yrotation Zrotation
									JOINT RightHandPinky2
									{
										OFFSET -5.254700 0.000000 0.000000
										CHANNELS 3 Xrotation Yrotation Zrotation
										JOINT RightHandPinky3
										{
											OFFSET -4.810204 0.000000 0.000000
											CHANNELS 3 Xrotation Yrotation Zrotation
											JOINT RightHandPinky4
											{
												OFFSET -3.647202 0.000000 0.000000
												CHANNELS 3 Xrotation Yrotation Zrotation
												End Site
												{
													OFFSET 0.000000 3.647186 0.011917
												}
											}
										}
									}
								}
							}
						}
					}
				}
			}
		}
	}
	JOINT LeftUpLeg
	{
		OFFSET 15.427100 -6.655098 0.678600
		CHANNELS 3 Xrotation Yrotation Zrotation
		JOINT LeftLeg
		{
			OFFSET 4.081073 -39.591068 13.024000
			CHANNELS 3 Xrotation Yrotation Zrotation
			JOINT LeftFoot
			{
				OFFSET -4.081074 -37.707932 -15.979700
				CHANNELS 3 Xrotation Yrotation Zrotation
				JOINT LeftToeBase
				{
					OFFSET 5.346399 -15.068900 20.645000
					CHANNELS 3 Xrotation Yrotation Zrotation
					JOINT LeftToe_End
					{
						OFFSET 2.754700 0.931300 11.300900
						CHANNELS 3 Xrotation Yrotation Zrotation
						End Site
						{
							OFFSET 0.000000 11.669021 0.000000
						}
					}
				}
			}
		}
	}
	JOINT RightUpLeg
	{
		OFFSET -15.569500 -6.655098 0.678600
		CHANNELS 3 Xrotation Yrotation Zrotation
		JOINT RightLeg
		{
			OFFSET -4.081825 -39.591045 13.023800
			CHANNELS 3 Xrotation Yrotation Zrotation
			JOINT RightFoot
			{
				OFFSET 4.081824 -37.707954 -15.979600
				CHANNELS 3 Xrotation Yrotation Zrotation
				JOINT RightToeBase
				{
					OFFSET -5.346400 -15.068900 20.645000
					CHANNELS 3 Xrotation Yrotation Zrotation
					JOINT RightToe_End
					{
						OFFSET -2.754700 0.931300 11.300900
						CHANNELS 3 Xrotation Yrotation Zrotation
						End Site
						{
							OFFSET 0.000000 11.669021 0.000000
						}
					}
				}
			}
		}
	}
}
MOTION
Frames: 5
Frame Time: 0.033333
5.224623 16.603142 10.416595 -60.372069 -7.141449 -11.069585 56.202358 -4.445345 4.614770 0.049410 -0.251421 -2.472820 0.029913 -0.563904 -2.421114 16.491010 -4.156378 0.903433 3.660616 -11.449554 -21.564010 -0.000001 0.000000 -0.000000 1.131641 -15.253235 -4.465624 68.972302 -16.867152 -38.909716 0.000022 -75.860042 0.000025 2.244932 11.822094 37.282786 -1.540046 3.690187 6.142358 3.939052 7.948707 0.746818 -0.579469 1.575008 2.538715 0.000000 -0.000000 0.000002 0.013785 -0.436538 3.619837 0.049410 0.825115 -6.853979 0.049409 0.825119 -6.853983 0.000000 0.000000 -0.000000 0.013918 -0.438464 3.635804 0.049642 0.827015 -6.869943 0.049406 0.825126 -6.853975 -0.000000 0.000000 -0.000003 0.013785 -0.436538 3.619838 0.049410 0.825116 -6.853981 0.049410 0.825113 -6.853977 0.000000 0.000000 -0.000000 -0.260516 3.608465 4.137848 0.038759 -3.229628 -7.361077 0.049412 0.825117 -6.853971 -0.000000 -0.000000 0.000001 -0.159425 -3.889647 -1.963009 27.313114 32.493221 58.158446 -0.000022 64.900498 0.000024 21.001884 -26.334821 -6.660927 -1.849252 -3.581771 -6.586127 4.637199 -8.634122 -0.225405 -1.273759 0.137319 -2.094868 -0.000001 -0.000006 0.000004 0.943323 3.502020 -30.143390 -0.000002 -0.000003 -0.000010 0.104550 1.203684 -9.928026 -0.000000 0.000001 0.000000 0.943323 3.502022 -30.143387 -0.000001 -0.000006 -0.000001 0.137621 1.379305 -11.395240 0.000001 -0.000002 0.000000 0.943322 3.502019 -30.143394 -0.000003 0.000001 0.000003 0.137620 1.379314 -11.395231 -0.000001 -0.000001 -0.000001 0.943323 3.502020 -30.143387 -0.000001 -0.000000 0.000000 0.104546 1.203687 -9.928021 0.000001 0.000001 -0.000001 -63.529543 -8.400293 13.646703 54.776225 -10.398785 6.973983 39.532858 -29.051431 -27.444617 0.875421 -0.000002 0.000010 -0.000001 -0.000002 -0.000000 -115.802347 -15.360155 -20.328600 121.578474 -18.693080 -8.033189 21.520126 -16.144849 -31.285251 -3.561848 0.000002 -0.000004 -0.000001 -0.000004 -0.000001 
5.317818 16.950066 10.750229 -58.508937 -8.041961 -11.517020 56.346906 -3.979366 5.182392 -0.109863 -0.155970 -2.611980 -0.128610 -0.486636 -2.571588 15.312688 -4.025013 1.333558 2.578123 -10.756945 -20.958741 -0.000000 0.000001 0.000002 1.148237 -15.031733 -4.202693 66.688970 -18.180698 -40.643293 0.000024 -73.758202 0.000030 3.623198 12.364627 37.010599 -1.540036 3.690198 6.142350 3.939038 7.948727 0.746811 -0.579459 1.574985 2.538712 0.000000 0.000000 0.000003 0.013799 -0.436537 3.619825 0.049407 0.825108 -6.853983 0.049425 0.825125 -6.853970 0.000000 0.000000 -0.000002 0.013916 -0.438460 3.635806 0.049639 0.827009 -6.869965 0.049423 0.825119 -6.853976 0.000000 -0.000000 0.000004 0.013799 -0.436537 3.619821 0.049407 0.825108 -6.853983 0.049422 0.825116 -6.853974 -0.000000 0.000000 -0.000000 -0.260512 3.608480 4.137852 0.038760 -3.229614 -7.361069 0.049420 0.825121 -6.853971 0.000000 -0.000000 -0.000000 -0.143949 -3.664648 -2.081191 26.392052 32.472789 58.849900 -0.000015 63.005879 0.000008 20.891590 -25.361725 -8.845956 -1.849255 -3.581784 -6.586133 4.637209 -8.634122 -0.225401 -1.273760 0.137313 -2.094867 -0.000002 -0.000001 -0.000003 0.943211 3.501809 -30.141529 0.000003 0.000005 -0.000010 0.104550 1.203689 -9.928022 0.000000 0.000000 -0.000001 0.943211 3.501809 -30.141526 -0.000004 0.000013 0.000008 0.137622 1.379308 -11.395249 -0.000000 -0.000003 0.000000 0.943213 3.501815 -30.141516 -0.000000 -0.000006 -0.000014 0.137619 1.379308 -11.395242 0.000000 0.000001 -0.000001 0.943211 3.501808 -30.141526 0.000001 0.000002 0.000001 0.104548 1.203700 -9.928018 0.000000 -0.000001 0.000000 -65.147137 -9.075191 13.834157 55.261049 -10.450270 7.208607 40.338428 -29.318768 -27.184867 1.042266 -0.000009 -0.000010 0.000000 -0.000001 -0.000001 -115.775736 -15.236417 -20.679448 121.513669 -17.456263 -7.173936 21.738178 -14.506958 -31.300534 -4.055426 -0.000022 -0.000003 -0.000000 0.000002 0.000000 
5.329759 17.325523 11.146423 -56.530853 -8.674932 -11.564175 56.278836 -3.688773 5.650989 -0.181006 -0.116537 -2.667540 -0.199388 -0.453342 -2.632071 14.008637 -3.958805 1.714079 1.430153 -10.389261 -20.493050 -0.000000 -0.000001 -0.000001 1.180678 -14.976067 -3.857707 64.629770 -19.976198 -41.918756 0.000020 -71.153550 0.000019 4.770281 12.411512 36.968764 -1.540038 3.690190 6.142372 3.939044 7.948698 0.746803 -0.579461 1.575005 2.538718 -0.000000 -0.000002 -0.000003 0.013793 -0.436518 3.619838 0.049414 0.825101 -6.853968 0.049421 0.825111 -6.853972 0.000000 0.000000 0.000004 0.013914 -0.438470 3.635816 0.049639 0.827030 -6.869958 0.049415 0.825104 -6.853974 0.000000 -0.000000 0.000000 0.013793 -0.436518 3.619840 0.049414 0.825102 -6.853965 0.049420 0.825117 -6.853974 -0.000000 0.000000 -0.000001 -0.260519 3.608471 4.137857 0.038756 -3.229603 -7.361077 0.049422 0.825093 -6.853971 -0.000000 -0.000000 0.000002 -0.145924 -3.645090 -2.144892 26.058200 32.778655 59.015348 -0.000027 61.244968 0.000020 19.629378 -24.452666 -11.991362 -1.849250 -3.581797 -6.586137 4.637201 -8.634118 -0.225400 -1.273759 0.137308 -2.094878 -0.000002 -0.000002 0.000002 0.943217 3.501817 -30.141533 0.000003 -0.000003 0.000010 0.104549 1.203673 -9.928029 -0.000000 0.000001 -0.000000 0.943217 3.501818 -30.141529 0.000005 -0.000004 0.000001 0.137620 1.379304 -11.395244 0.000001 0.000002 -0.000000 0.943218 3.501817 -30.141519 0.000001 -0.000003 0.000006 0.137622 1.379305 -11.395245 0.000000 -0.000002 -0.000001 0.943217 3.501817 -30.141529 0.000001 0.000004 -0.000009 0.104550 1.203670 -9.928029 -0.000000 0.000001 -0.000000 -66.495471 -9.434437 13.624288 55.087006 -10.653856 7.215277 41.660257 -29.964648 -26.840910 1.000175 0.000022 0.000012 0.000000 -0.000000 -0.000001 -115.879842 -15.094481 -21.367805 121.625971 -16.506341 -6.405299 21.472146 -12.710925 -31.681733 -4.844228 -0.000013 -0.000004 -0.000001 0.000001 0.000001 
5.363108 17.683647 11.751144 -54.951672 -9.255149 -11.517779 56.300699 -3.351015 5.913755 -0.224551 -0.102120 -2.678868 -0.242755 -0.440050 -2.645185 12.992067 -3.934573 1.969320 0.092073 -10.226821 -20.122017 0.000001 -0.000001 -0.000000 1.183270 -14.881336 -3.783305 63.287283 -21.705132 -42.631138 0.000019 -68.442655 0.000007 5.514370 11.792725 37.849305 -1.540028 3.690180 6.142350 3.939054 7.948700 0.746809 -0.579464 1.575000 2.538710 -0.000000 -0.000000 -0.000001 0.013788 -0.436555 3.619832 0.049419 0.825094 -6.853980 0.049410 0.825105 -6.853976 -0.000000 0.000000 0.000002 0.013917 -0.438472 3.635816 0.049639 0.827014 -6.869954 0.049413 0.825102 -6.853978 0.000000 -0.000000 0.000002 0.013788 -0.436555 3.619831 0.049419 0.825095 -6.853982 0.049411 0.825107 -6.853975 -0.000000 0.000000 -0.000000 -0.260519 3.608471 4.137848 0.038757 -3.229615 -7.361061 0.049414 0.825101 -6.853976 0.000000 0.000000 -0.000001 -0.170065 -3.714136 -2.413994 25.639601 33.259350 59.414607 -0.000037 59.435213 0.000043 19.291495 -23.325612 -14.070294 -1.849243 -3.581805 -6.586153 4.637203 -8.634118 -0.225408 -1.273759 0.137311 -2.094884 -0.000001 -0.000001 0.000002 0.943221 3.501803 -30.141543 0.000003 0.000002 0.000009 0.104548 1.203677 -9.928022 0.000000 0.000001 -0.000001 0.943221 3.501804 -30.141539 -0.000001 -0.000000 0.000001 0.137619 1.379307 -11.395241 -0.000000 -0.000004 0.000000 0.943224 3.501806 -30.141539 -0.000003 0.000013 -0.000002 0.137620 1.379312 -11.395237 0.000000 -0.000001 -0.000000 0.943221 3.501803 -30.141539 -0.000004 -0.000003 -0.000004 0.104547 1.203686 -9.928019 0.000001 0.000001 0.000000 -67.399234 -9.620293 13.199376 55.043958 -10.786928 7.304759 42.958779 -31.366787 -26.646209 0.964146 0.000003 -0.000002 -0.000000 0.000001 -0.000001 -116.887172 -15.440749 -21.550949 121.998749 -16.510027 -6.457096 20.785435 -12.682063 -31.864472 -5.685646 -0.000016 0.000001 0.000000 -0.000001 0.000000 
5.321459 18.060249 12.694321 -53.885084 -10.034871 -11.569110 56.267279 -2.855815 5.823466 -0.261972 -0.039174 -2.724389 -0.278285 -0.382784 -2.699092 12.417677 -3.946667 2.238173 -0.869658 -10.294799 -19.596614 -0.000000 0.000001 0.000001 1.173768 -14.782433 -3.826102 62.316105 -22.928132 -43.432080 -0.000024 -66.050935 -0.000025 6.784531 11.536141 37.799404 -1.540030 3.690182 6.142349 3.939039 7.948729 0.746814 -0.579462 1.574996 2.538710 0.000000 0.000001 0.000002 0.013784 -0.436542 3.619836 0.049420 0.825104 -6.853981 0.049413 0.825109 -6.853981 -0.000000 -0.000000 -0.000002 0.013912 -0.438478 3.635831 0.049656 0.827029 -6.869965 0.049419 0.825115 -6.853973 -0.000000 0.000000 0.000001 0.013784 -0.436542 3.619838 0.049420 0.825104 -6.853984 0.049414 0.825118 -6.853983 0.000000 0.000000 0.000001 -0.260513 3.608475 4.137860 0.038762 -3.229605 -7.361075 0.049417 0.825116 -6.853977 -0.000000 -0.000000 0.000000 -0.152528 -3.496169 -2.503743 25.798296 33.546184 59.720019 0.000030 57.842147 -0.000043 18.970873 -22.374865 -15.850168 -1.849260 -3.581796 -6.586144 4.637201 -8.634119 -0.225400 -1.273754 0.137314 -2.094877 -0.000003 -0.000003 0.000001 0.943215 3.501811 -30.141533 0.000002 0.000003 0.000013 0.104549 1.203675 -9.928020 0.000001 0.000001 0.000000 0.943216 3.501811 -30.141533 -0.000004 0.000002 -0.000010 0.137619 1.379297 -11.395242 0.000001 0.000002 -0.000000 0.943217 3.501810 -30.141526 -0.000005 0.000001 -0.000013 0.137621 1.379295 -11.395239 -0.000000 -0.000001 -0.000000 0.943215 3.501811 -30.141533 -0.000000 0.000000 -0.000008 0.104550 1.203686 -9.928022 0.000001 0.000001 -0.000001 -68.014395 -9.645867 12.666722 55.809763 -11.526070 7.649183 43.347782 -32.240002 -27.162558 1.639205 -0.000004 -0.000005 0.000001 -0.000001 -0.000000 -119.152964 -16.579430 -20.979404 122.780997 -17.580282 -7.324449 20.333171 -13.306933 -31.476220 -6.330611 0.000001 -0.000002 -0.000000 -0.000001 -0.000001 
